<svg id="Layer_1" xmlns="http://www.w3.org/2000/svg" viewBox="0 0 256.2 80.7"><style>.st0{fill:#253761}</style><path class="st0" d="M100.9 25.7c0-.2-.2-.4-.5-.4h-.4c-.2 0-.4.1-.4.3l-5.6 12h-.1l-5.6-12c-.1-.2-.2-.3-.4-.3h-.4c-.3 0-.4.2-.5.4l-3 17.1c-.1.4.2.6.5.6h2.3c.2 0 .4-.2.5-.4l1.5-9.7h.1l4.5 10c.1.2.2.3.4.3h.5c.2 0 .4-.1.4-.3l4.5-10h.1l1.5 9.7c.1.2.3.4.5.4h2.3c.3 0 .5-.2.5-.6l-3.2-17.1zm12.7 17.7c.3 0 .5-.2.5-.5V26.1c0-.3-.2-.5-.5-.5h-2.4c-.3 0-.5.2-.5.5V43c0 .3.2.5.5.5h2.4zm23.8-8.9c0-4.9-4-8.9-8.9-8.9h-6c-.3 0-.5.2-.5.5V43c0 .3.2.5.5.5h6c4.9-.1 8.9-4.1 8.9-9zm-12.1 5.8V28.7h2.9c3.3 0 5.7 2.5 5.7 5.8s-2.4 5.8-5.7 5.8h-2.9zm25.3-14.7h-6c-.3 0-.5.2-.5.5V43c0 .3.2.5.5.5h6c4.9 0 8.9-4 8.9-8.9.1-5-4-9-8.9-9zm-.3 14.7h-2.9V28.7h2.9c3.3 0 5.7 2.5 5.7 5.8s-2.4 5.8-5.7 5.8zm25.8.1h-6.5V26.1c0-.3-.2-.5-.5-.5h-2.3c-.3 0-.5.2-.5.5V43c0 .3.2.5.5.5h9.3c.3 0 .5-.2.5-.5v-2.1c-.1-.3-.3-.5-.5-.5zm17.2-14.8h-10.4c-.3 0-.5.2-.5.5V43c0 .3.2.5.5.5h10.4c.3 0 .5-.2.5-.5v-2.1c0-.3-.2-.5-.5-.5h-7.5v-4.5h6.3c.3 0 .5-.2.5-.5v-2.1c0-.3-.2-.5-.5-.5h-6.3v-4.2h7.5c.3 0 .5-.2.5-.5V26c0-.2-.2-.4-.5-.4zm12.7 7.3c-2.1-.8-3-1.7-3-2.9 0-.8.8-1.8 2.2-1.8 1.4 0 3.3 1.3 3.5 1.4.3.2.7 0 .9-.3l1-1.5c.2-.3.1-.7-.2-.8-.5-.4-2.5-1.7-5.1-1.7-4.1 0-5.7 2.6-5.7 4.9 0 3 2.4 4.5 4.8 5.5 2.1.9 3.2 1.8 3.2 3.1 0 1.1-1 2-2.3 2-1.7 0-3.7-1.5-3.8-1.6-.2-.2-.7-.2-.9.2l-.9 1.6c-.2.4-.1.5.1.8.5.5 2.4 2 5.6 2 3.6 0 5.9-2.4 5.9-5 0-3.5-2.9-4.9-5.3-5.9zm22.7-7.3h-10.4c-.3 0-.5.2-.5.5V43c0 .3.2.5.5.5h10.4c.3 0 .5-.2.5-.5v-2.1c0-.3-.2-.5-.5-.5h-7.5v-4.5h6.3c.3 0 .5-.2.5-.5v-2.1c0-.3-.2-.5-.5-.5h-6.3v-4.2h7.5c.3 0 .5-.2.5-.5V26c0-.2-.2-.4-.5-.4zm20.5 17.1l-5.3-8.4 5.1-8c.2-.3 0-.7-.4-.7h-3c-.2 0-.4.1-.4.2l-3.3 5.4-3.3-5.4c-.1-.1-.2-.2-.4-.2h-3c-.4 0-.6.4-.4.7l5.1 8-5.3 8.4c-.2.3 0 .7.5.7h2.8c.2 0 .4-.1.4-.2l3.6-5.8h.1l3.6 5.8c.1.1.2.2.4.2h2.8c.4 0 .6-.3.4-.7zM97.8 63.4c-.2-.2-.4-.2-.6 0-1.1.9-2.4 1.5-3.9 1.5-3.3 0-5.7-2.7-5.7-5.9s2.4-5.9 5.7-5.9c1.4 0 2.9.6 3.9 1.5.2.2.5.2.6 0l1.6-1.6c.2-.2.2-.5 0-.7-1.7-1.6-3.6-2.4-6.2-2.4-5.1 0-9.2 4.1-9.2 9.2s4.1 9.2 9.2 9.2c2.3 0 4.5-.8 6.2-2.5.2-.2.2-.5 0-.7l-1.6-1.7zm21.5-7.9c0-3-2.5-5.5-5.6-5.5h-7.3c-.3 0-.5.2-.5.5v16.9c0 .3.2.5.5.5h2.3c.3 0 .5-.2.5-.5v-6.5h2.8l3.4 6.8c.1.1.2.2.4.2h2.7c.4 0 .6-.4.4-.7l-3.5-6.5c2.4-.9 3.9-2.8 3.9-5.2zm-5.8 2.7h-4.2v-5.1h4.2c1.4 0 2.5 1.1 2.5 2.5s-1.2 2.6-2.5 2.6zm15.6-8.1h-2.4c-.3 0-.5.2-.5.5v16.9c0 .3.2.5.5.5h2.4c.3 0 .5-.2.5-.5v-17c0-.2-.2-.4-.5-.4zm21 13.3c-.2-.2-.4-.2-.6 0-1.1.9-2.4 1.5-3.9 1.5-3.3 0-5.7-2.7-5.7-5.9s2.4-5.9 5.7-5.9c1.4 0 2.9.6 3.9 1.5.2.2.5.2.6 0l1.6-1.6c.2-.2.2-.5 0-.7-1.7-1.6-3.6-2.4-6.2-2.4-5.1 0-9.2 4.1-9.2 9.2s4.1 9.2 9.2 9.2c2.3 0 4.5-.8 6.2-2.5.2-.2.2-.5 0-.7l-1.6-1.7zm14.9-4.9l6.7-7.5c.3-.4.1-.9-.4-.9h-2.5c-.2 0-.4.1-.5.3l-6.4 7.2v-6.9c0-.3-.3-.6-.6-.6h-2.2c-.4 0-.6.3-.6.6v16.6c0 .3.3.6.6.6h2.2c.3 0 .6-.3.6-.6v-7.8l6.7 8.2c.1.1.2.2.5.2h2.8c.5 0 .7-.6.5-.9l-7.4-8.5zm24.1-8.4h-10.4c-.3 0-.5.2-.5.5v16.9c0 .3.2.5.5.5h10.4c.3 0 .5-.2.5-.5v-2.1c0-.3-.2-.5-.5-.5h-7.5v-4.5h6.3c.3 0 .5-.2.5-.5v-2.1c0-.3-.2-.5-.5-.5h-6.3v-4.2h7.5c.3 0 .5-.2.5-.5v-2.1c0-.2-.2-.4-.5-.4zm17.1 0h-11.1c-.3 0-.5.2-.5.5v2.1c0 .3.2.5.5.5h3.9v14.3c0 .3.2.5.5.5h2.4c.3 0 .5-.2.5-.5V53.1h3.9c.3 0 .5-.2.5-.5v-2.1c-.1-.2-.3-.4-.6-.4zM37.5 17.2C20.5 17.2 6.7 31 6.7 48s13.8 30.8 30.8 30.8c13.6 0 25.1-8.8 29.2-20.9h-.1c-4 11-14.6 18.9-27.1 18.9-13 0-23.9-8.6-27.5-20.4C15.5 67 25.5 74.6 37.3 74.6 52 74.6 63.9 62.7 63.9 48S52 21.4 37.3 21.4C25.5 21.4 15.5 29 12 39.6c3.6-11.8 14.6-20.4 27.5-20.4 13.6 0 24.9 9.4 28 22h.1c-3.1-13.7-15.4-24-30.1-24zm9.6 45.3c.1-.4.2-1.5-.3-2.1-.4-.6-1.3-.6-2.5 0-.2-.2-.9-.7-2-1.2-1.3-.5-3.4-1.2-6.5-1.2-1.8 0-3.6.2-5.6.7-.2-.5-.4-1-.8-1.7-.1-.1-.2-.2-.2-.4 1.5-.5 5.1-1.6 9.4-1.6 1.4 0 2.8.1 4.1.3.1 0 9.6 1.6 11.6 7.3l-7.2-.1zm0-10.3c.1-.4.2-1.5-.3-2.1-.4-.6-1.3-.6-2.5 0-.2-.2-.9-.7-2-1.2-1.3-.6-3.4-1.2-6.4-1.2-1.8 0-3.6.2-5.6.7-.2-.5-.4-1-.8-1.7-.1-.1-.2-.2-.2-.4 1.5-.5 5.1-1.6 9.4-1.6 1.4 0 2.8.1 4.1.3.1 0 9.6 1.6 11.6 7.3l-7.3-.1zm-8.5-17.9c1.4 0 2.8.1 4.1.3.1 0 9.6 1.6 11.6 7.3l-7.2-.1c.1-.4.2-1.5-.3-2.1-.4-.6-1.3-.6-2.5 0-.2-.2-.9-.7-2-1.2-1.3-.6-3.4-1.2-6.4-1.2-1.8 0-3.6.2-5.6.7-.2-.5-.4-1-.8-1.7-.1-.1-.2-.2-.2-.4 1.4-.5 5-1.6 9.3-1.6zm-17.9 5.2c.2-.2.5-.4.8-.4.2 0 .5.1.7.2 0-.1 0-.2.1-.4.1-.3.5-.5 1-.5.2 0 .5.1.7.2.1 0 .1 0 .2.1-.1-.2-.1-.5 0-.7.1-.3.5-.5 1-.5.2 0 .5.1.7.2.1.1.3.1.4.2-.1-.2-.1-.4 0-.5.1-.3.5-.5 1-.5h.3c-.3-.6-.5-1.3-.6-1.8 0 0-.3-1.7 1-1.7.4 0 .8.3.8.8 0 .4-.2.6-.6.7 0 .9.7 1.9.7 1.9 1.4 2.2 1 3.3 1 3.5-.1.6-.5.9-.8.9h-.3c-.4 0-.7-.4-.7-.7 0-.4.3-.7.6-.7 0-.3 0-.6-.1-.8-.2.1-.4.2-.7.2-.2 0-.5-.1-.7-.2-.1-.1-.3-.1-.4-.2.1.2.1.4 0 .5-.1.3-.5.5-1 .5-.2 0-.5-.1-.7-.2-.1 0-.1 0-.2-.1.1.2.1.4 0 .7-.1.3-.5.5-1 .5-.2 0-.5-.1-.7-.2-.1 0-.2-.1-.3-.2 0 .2 0 .5-.2.7-.2.2-.5.4-.8.4-.3 0-.6-.1-.8-.3-.5-.4-.7-1.1-.4-1.6zm0 10.3c.2-.2.5-.4.8-.4.2 0 .5.1.7.2 0-.1 0-.2.1-.4.1-.3.5-.5 1-.5.2 0 .5.1.7.2.1 0 .1 0 .2.1-.1-.2-.1-.5 0-.7.1-.3.5-.5 1-.5.2 0 .5.1.7.2.1.1.3.1.4.2-.1-.2-.1-.4 0-.5.1-.3.5-.5 1-.5h.3c-.3-.6-.5-1.3-.6-1.8 0 0-.3-1.7 1-1.7.4 0 .8.3.8.8 0 .4-.2.6-.6.7 0 .9.7 1.9.7 1.9 1.4 2.2 1 3.3 1 3.5-.1.6-.5.9-.8.9h-.3c-.4 0-.7-.4-.7-.8s.3-.7.6-.7c0-.3 0-.6-.1-.8-.2.1-.4.2-.7.2-.2 0-.5-.1-.7-.2-.1-.1-.3-.1-.4-.2.1.2.1.4 0 .5-.1.3-.5.5-1 .5-.2 0-.5-.1-.7-.2-.1 0-.1 0-.2-.1.1.2.1.4 0 .7-.1.3-.5.5-1 .5-.2 0-.5-.1-.7-.2-.1 0-.2-.1-.3-.2 0 .2 0 .5-.2.7-.2.2-.5.4-.8.4-.3 0-.6-.1-.8-.3-.5-.3-.7-1-.4-1.5zm0 10.4c.2-.2.5-.4.8-.4.2 0 .5.1.7.2 0-.1 0-.2.1-.4.1-.3.5-.5 1-.5.2 0 .5.1.7.2.1 0 .1 0 .2.1-.1-.2-.1-.5 0-.7.1-.3.5-.5 1-.5.2 0 .5.1.7.2.1.1.3.1.4.2-.1-.2-.1-.4 0-.5.1-.3.5-.5 1-.5h.3c-.3-.6-.5-1.3-.6-1.8 0 0-.3-1.7 1-1.7.4 0 .8.3.8.8 0 .4-.2.6-.6.7 0 .9.7 1.9.7 1.9 1.4 2.2 1 3.3 1 3.5-.1.6-.5.9-.8.9h-.3c-.4 0-.7-.4-.7-.7 0-.4.3-.7.6-.7 0-.3 0-.6-.1-.8-.2.1-.4.2-.7.2-.2 0-.5-.1-.7-.2-.1-.1-.3-.1-.4-.2.1.2.1.4 0 .5-.1.3-.5.5-1 .5-.2 0-.5-.1-.7-.2-.1 0-.1 0-.2-.1.1.2.1.5 0 .7-.1.3-.5.5-1 .5-.2 0-.5-.1-.7-.2-.1 0-.2-.1-.3-.2 0 .2 0 .5-.2.7-.2.2-.5.4-.8.4-.3 0-.6-.1-.8-.3-.5-.5-.7-1.1-.4-1.6zm16.8-45.3c3.1 0 6.2.4 9.1 1.3L51 5.5l-6.9 3v1.9c-1.4 2.8-5.4 1.9-5.4-1.1L41 5.9l-3.8-4.1-3.8 4.1 2.3 3.4c0 3-4 3.9-5.4 1.1V8.5l-6.9-3 4.4 10.8c3.2-.9 6.4-1.4 9.7-1.4z"/></svg>